<?xml version="1.0" standalone="no"?>
<!DOCTYPE svg PUBLIC "-//W3C//DTD SVG 20010904//EN"
 "http://www.w3.org/TR/2001/REC-SVG-20010904/DTD/svg10.dtd">
<svg version="1.0" xmlns="http://www.w3.org/2000/svg"
 width="768.000000pt" height="373.000000pt" viewBox="0 0 768.000000 373.000000"
 preserveAspectRatio="xMidYMid meet">
<metadata>
Created by potrace 1.12, written by Peter Selinger 2001-2015
</metadata>
<g transform="translate(0.000000,373.000000) scale(0.100000,-0.100000)"
fill="#000000" stroke="none">
<path d="M4563 3449 c-17 -17 -40 -23 -114 -30 -91 -9 -119 -19 -167 -63 -39
-35 -55 -76 -56 -146 l-1 -65 -30 3 c-92 8 -234 5 -268 -7 -36 -12 -38 -15
-31 -40 13 -43 16 -1991 3 -2023 -25 -61 20 -99 127 -106 40 -2 94 1 122 8 55
13 62 23 62 95 1 161 99 566 178 733 l26 57 7 -260 c5 -185 11 -283 24 -340
36 -172 103 -263 209 -285 128 -26 233 22 323 147 24 35 46 63 48 63 2 0 11
-22 19 -48 43 -128 144 -192 305 -192 95 0 135 30 194 146 14 27 33 77 42 109
9 33 21 75 27 94 l11 34 32 -69 c17 -38 44 -84 60 -102 74 -88 221 -113 338
-59 l59 27 23 -29 c58 -68 258 -119 419 -106 220 17 326 81 326 198 0 82 -24
111 -230 277 -257 207 -285 257 -218 389 28 55 89 91 154 91 32 0 51 -8 85
-35 24 -19 55 -35 67 -35 74 0 140 98 141 212 1 49 -2 59 -24 76 -82 64 -314
42 -500 -48 -93 -45 -176 -115 -208 -174 -18 -33 -22 -58 -22 -131 0 -79 3
-97 29 -149 35 -71 127 -167 246 -256 120 -90 197 -166 211 -207 10 -30 9 -39
-8 -62 -29 -38 -87 -55 -141 -41 -50 12 -68 23 -168 97 -39 29 -78 53 -87 53
-13 0 -17 9 -17 33 0 69 -62 80 -106 20 -52 -70 -77 -93 -104 -93 -53 0 -97
83 -119 230 -15 94 -15 338 0 459 13 112 0 163 -46 181 -29 11 -206 13 -243 4
-30 -9 -37 -43 -17 -90 14 -33 16 -61 10 -179 -12 -278 -44 -465 -96 -567 -38
-75 -112 -103 -145 -53 -38 59 -44 125 -44 543 l0 403 -25 23 c-28 26 -111 52
-196 62 -53 6 -56 5 -62 -17 -4 -13 -7 -178 -7 -365 0 -330 -1 -345 -25 -439
-38 -149 -100 -236 -182 -251 -92 -17 -124 49 -131 276 -5 165 5 282 40 498
l22 132 -31 33 c-17 17 -38 47 -48 65 -19 39 -60 59 -137 68 -44 5 -57 3 -79
-15 -54 -42 -129 -230 -210 -525 -27 -99 -51 -182 -54 -184 -3 -3 -3 84 0 194
3 109 7 307 10 439 7 325 52 864 79 944 13 40 18 41 86 16 99 -37 230 32 281
149 37 82 28 226 -14 226 -7 0 -22 -10 -34 -21z"/>
<path d="M396 2938 c-4 -13 -11 -125 -16 -250 -5 -125 -11 -232 -14 -236 -3
-5 -69 -12 -147 -16 -78 -3 -154 -12 -168 -19 -34 -16 -38 -48 -9 -81 24 -27
81 -45 213 -66 39 -6 77 -15 84 -20 16 -9 16 17 0 -431 -14 -404 2 -552 76
-715 59 -130 153 -204 260 -204 68 0 122 27 174 86 129 147 212 408 261 822 8
62 18 109 27 117 18 19 73 19 98 1 21 -15 22 -36 4 -228 -20 -217 16 -490 82
-619 28 -55 88 -119 126 -136 45 -18 147 -17 189 3 48 23 99 85 143 175 l37
76 29 -50 c30 -50 101 -116 165 -155 70 -42 190 -75 275 -76 70 -1 86 2 126
26 134 79 232 256 255 461 6 51 10 60 46 89 22 17 62 62 89 101 l49 70 0 -654
c0 -360 4 -660 8 -667 13 -20 71 -32 152 -32 83 0 141 13 165 36 22 23 19 59
-8 77 -45 29 -59 140 -65 502 -8 548 37 894 140 1088 74 138 172 129 218 -19
26 -86 36 -321 21 -530 -15 -217 -49 -327 -111 -359 -45 -23 -60 -19 -110 36
-40 44 -50 49 -74 43 -56 -14 -73 -96 -32 -159 25 -39 118 -68 201 -63 202 13
330 193 365 510 14 131 13 206 -5 340 -41 316 -183 500 -363 473 -63 -9 -93
-27 -137 -77 -48 -57 -88 -143 -116 -250 -13 -49 -26 -88 -31 -88 -4 0 -8 122
-10 271 l-3 271 -28 24 c-36 31 -86 31 -154 0 l-52 -24 15 -54 c9 -36 14 -110
14 -234 0 -198 1 -195 -76 -351 -27 -54 -89 -133 -105 -133 -5 0 -9 36 -9 79
0 88 -32 292 -54 345 -21 51 -210 237 -281 277 -53 30 -69 34 -130 34 -129 0
-198 -56 -283 -229 -81 -165 -141 -398 -149 -581 -6 -149 -31 -253 -88 -372
-45 -93 -87 -138 -122 -131 -108 21 -119 500 -18 815 41 129 33 157 -52 187
-33 12 -221 36 -280 36 -30 0 -44 32 -38 85 10 78 0 115 -35 122 -22 4 -30 12
-32 32 -2 19 -15 32 -47 50 -40 22 -61 25 -205 31 -165 7 -206 16 -206 48 0 9
7 91 15 182 23 254 24 244 -32 268 -50 21 -146 42 -194 42 -19 0 -28 -6 -33
-22z m593 -661 l-34 -23 3 -319 c4 -300 3 -326 -18 -420 -57 -260 -147 -416
-233 -403 -32 5 -64 60 -83 146 -15 68 -16 119 -10 472 4 217 10 424 14 460 7
64 8 65 43 77 40 13 191 30 288 32 l64 1 -34 -23z m1350 -113 c74 -44 117
-175 134 -413 l11 -163 -27 -24 c-55 -47 -191 -68 -282 -43 -126 35 -169 210
-101 413 34 101 88 181 145 217 51 33 81 36 120 13z m-244 -815 c83 -30 247
-23 348 16 23 10 23 -19 -3 -89 -47 -124 -193 -198 -307 -155 -72 27 -123 116
-123 217 0 38 2 43 18 37 9 -5 40 -16 67 -26z"/>
</g>
</svg>
